<svg xmlns="http://www.w3.org/2000/svg" viewBox="0 0 128 128">
  <rect width="128" height="128" rx="16" fill="#24292f"/>
  <path fill="#ffffff" d="M64 16C37.5 16 16 37.5 16 64c0 21.2 13.8 39.2 32.9 45.6 2.4.4 3.3-1 3.3-2.3 0-1.1 0-4.8-.1-8.7-13.4 2.9-16.2-5.7-16.2-5.7-2.2-5.6-5.4-7.1-5.4-7.1-4.4-3 .3-2.9.3-2.9 4.9.3 7.5 5 7.5 5 4.3 7.4 11.4 5.3 14.2 4 .4-3.1 1.7-5.3 3.1-6.5-10.7-1.2-21.9-5.4-21.9-23.8 0-5.3 1.9-9.6 5-13-.5-1.2-2.2-6.1.5-12.8 0 0 4.1-1.3 13.4 5 3.9-1.1 8.1-1.6 12.2-1.6 4.1 0 8.3.6 12.2 1.6 9.3-6.3 13.4-5 13.4-5 2.7 6.7 1 11.6.5 12.8 3.1 3.4 5 7.7 5 13 0 18.5-11.3 22.6-22 23.8 1.7 1.5 3.3 4.4 3.3 8.9 0 6.4-.1 11.6-.1 13.2 0 1.3.9 2.8 3.3 2.3C98.2 103.2 112 85.2 112 64c0-26.5-21.5-48-48-48z"/>
</svg>

